<svg xmlns="http://www.w3.org/2000/svg" viewBox="0 0 1440 2560" preserveAspectRatio="xMidYMid slice">
  <defs>
    <linearGradient id="bg" x1="0" y1="0" x2="0" y2="1">
      <stop offset="0%" stop-color="#041033" />
      <stop offset="45%" stop-color="#051541" />
      <stop offset="100%" stop-color="#02081f" />
    </linearGradient>
    <radialGradient id="glowA" cx="55%" cy="20%" r="45%">
      <stop offset="0%" stop-color="#4f8dff" stop-opacity="0.36" />
      <stop offset="70%" stop-color="#2b64d9" stop-opacity="0.12" />
      <stop offset="100%" stop-color="#103070" stop-opacity="0" />
    </radialGradient>
    <radialGradient id="glowB" cx="20%" cy="72%" r="42%">
      <stop offset="0%" stop-color="#2f77ff" stop-opacity="0.3" />
      <stop offset="75%" stop-color="#1e4fb0" stop-opacity="0.1" />
      <stop offset="100%" stop-color="#0a1f4e" stop-opacity="0" />
    </radialGradient>
    <radialGradient id="glowC" cx="82%" cy="75%" r="35%">
      <stop offset="0%" stop-color="#67c5ff" stop-opacity="0.16" />
      <stop offset="100%" stop-color="#103070" stop-opacity="0" />
    </radialGradient>
    <filter id="blurSoft" x="-40%" y="-40%" width="180%" height="180%">
      <feGaussianBlur stdDeviation="14" />
    </filter>
    <filter id="blurNode" x="-60%" y="-60%" width="220%" height="220%">
      <feGaussianBlur stdDeviation="2.8" />
    </filter>
  </defs>

  <rect width="1440" height="2560" fill="url(#bg)" />
  <rect width="1440" height="2560" fill="url(#glowA)" />
  <rect width="1440" height="2560" fill="url(#glowB)" />
  <rect width="1440" height="2560" fill="url(#glowC)" />

  <g fill="#7fb5ff" opacity="0.14" filter="url(#blurSoft)">
    <ellipse cx="300" cy="1100" rx="270" ry="130" />
    <ellipse cx="760" cy="870" rx="420" ry="190" />
    <ellipse cx="1220" cy="1320" rx="240" ry="120" />
    <ellipse cx="170" cy="1850" rx="210" ry="120" />
    <ellipse cx="1180" cy="2090" rx="260" ry="130" />
  </g>

  <g stroke="#7eb3ff" stroke-opacity="0.34" stroke-width="2">
    <path d="M0 1030 L180 1080 L340 1150 L510 1130 L690 1180 L860 1110 L1050 1160 L1240 1090 L1440 1120" />
    <path d="M40 980 L220 1050 L400 1035 L560 1090 L760 1020 L940 1060 L1160 1030 L1320 1080" />
    <path d="M120 1240 L300 1200 L450 1260 L620 1220 L810 1280 L980 1240 L1180 1290 L1360 1260" />
    <path d="M0 2100 L220 2140 L390 2060 L560 2100 L760 2040 L930 2080 L1140 2020 L1320 2060 L1440 2010" />
  </g>

  <g stroke="#8fc5ff" stroke-opacity="0.25" stroke-width="1.5">
    <path d="M180 1080 L340 980 L510 1130 L690 1040 L860 1110" />
    <path d="M340 1150 L450 1260 L620 1220 L760 1280 L980 1240" />
    <path d="M560 1090 L620 1220 L760 1020 L940 1060" />
    <path d="M390 2060 L560 2100 L760 2040 L930 2080" />
  </g>

  <g>
    <g fill="#9ed2ff" opacity="0.95">
      <circle cx="60" cy="980" r="5" />
      <circle cx="180" cy="1080" r="6" />
      <circle cx="340" cy="1150" r="8" />
      <circle cx="510" cy="1130" r="5" />
      <circle cx="690" cy="1180" r="7" />
      <circle cx="860" cy="1110" r="6" />
      <circle cx="1050" cy="1160" r="7" />
      <circle cx="1240" cy="1090" r="6" />
      <circle cx="1380" cy="1120" r="5" />
      <circle cx="300" cy="1200" r="7" />
      <circle cx="620" cy="1220" r="6" />
      <circle cx="810" cy="1280" r="5" />
      <circle cx="980" cy="1240" r="7" />
      <circle cx="1180" cy="1290" r="5" />
      <circle cx="150" cy="2140" r="6" />
      <circle cx="390" cy="2060" r="7" />
      <circle cx="760" cy="2040" r="6" />
      <circle cx="1140" cy="2020" r="7" />
      <circle cx="1320" cy="2060" r="5" />
    </g>
    <g fill="#d7ecff" opacity="0.8" filter="url(#blurNode)">
      <circle cx="60" cy="980" r="6" />
      <circle cx="340" cy="1150" r="9" />
      <circle cx="690" cy="1180" r="8" />
      <circle cx="1050" cy="1160" r="8" />
      <circle cx="980" cy="1240" r="8" />
      <circle cx="390" cy="2060" r="8" />
      <circle cx="1140" cy="2020" r="8" />
    </g>
  </g>
</svg>
